<svg id="visual" viewBox="0 0 900 600" width="900" height="600" xmlns="http://www.w3.org/2000/svg" xmlns:xlink="http://www.w3.org/1999/xlink" version="1.1"><rect x="0" y="0" width="900" height="600" fill="#FFFFFF"></rect><defs><linearGradient id="grad1_0" x1="33.3%" y1="0%" x2="100%" y2="100%"><stop offset="20%" stop-color="#0acb00" stop-opacity="1"></stop><stop offset="80%" stop-color="#0acb00" stop-opacity="1"></stop></linearGradient></defs><defs><linearGradient id="grad1_1" x1="33.3%" y1="0%" x2="100%" y2="100%"><stop offset="20%" stop-color="#0acb00" stop-opacity="1"></stop><stop offset="80%" stop-color="#a6e792" stop-opacity="1"></stop></linearGradient></defs><defs><linearGradient id="grad1_2" x1="33.3%" y1="0%" x2="100%" y2="100%"><stop offset="20%" stop-color="#ffffff" stop-opacity="1"></stop><stop offset="80%" stop-color="#a6e792" stop-opacity="1"></stop></linearGradient></defs><defs><linearGradient id="grad2_0" x1="0%" y1="0%" x2="66.7%" y2="100%"><stop offset="20%" stop-color="#0acb00" stop-opacity="1"></stop><stop offset="80%" stop-color="#0acb00" stop-opacity="1"></stop></linearGradient></defs><defs><linearGradient id="grad2_1" x1="0%" y1="0%" x2="66.7%" y2="100%"><stop offset="20%" stop-color="#a6e792" stop-opacity="1"></stop><stop offset="80%" stop-color="#0acb00" stop-opacity="1"></stop></linearGradient></defs><defs><linearGradient id="grad2_2" x1="0%" y1="0%" x2="66.7%" y2="100%"><stop offset="20%" stop-color="#a6e792" stop-opacity="1"></stop><stop offset="80%" stop-color="#ffffff" stop-opacity="1"></stop></linearGradient></defs><g transform="translate(900, 0)"><path d="M0 486.7C-68.3 485.7 -136.6 484.7 -186.3 449.7C-235.9 414.7 -266.9 345.7 -291.3 291.3C-315.7 237 -333.5 197.3 -364.9 151.2C-396.4 105 -441.6 52.5 -486.7 0L0 0Z" fill="#d4f4c8"></path><path d="M0 324.5C-45.5 323.8 -91.1 323.1 -124.2 299.8C-157.3 276.5 -178 230.5 -194.2 194.2C-210.5 158 -222.3 131.5 -243.3 100.8C-264.3 70 -294.4 35 -324.5 0L0 0Z" fill="#71da5a"></path><path d="M0 162.2C-22.8 161.9 -45.5 161.6 -62.1 149.9C-78.6 138.2 -89 115.2 -97.1 97.1C-105.2 79 -111.2 65.8 -121.6 50.4C-132.1 35 -147.2 17.5 -162.2 0L0 0Z" fill="#0acb00"></path></g><g transform="translate(0, 600)"><path d="M0 -486.7C45 -436.9 90.1 -387.1 153.8 -371.4C217.6 -355.7 300.1 -374.2 344.2 -344.2C388.2 -314.2 393.8 -235.7 411.1 -170.3C428.5 -104.9 457.6 -52.4 486.7 0L0 0Z" fill="#d4f4c8"></path><path d="M0 -324.5C30 -291.3 60 -258.1 102.6 -247.6C145.1 -237.1 200.1 -249.5 229.5 -229.5C258.8 -209.5 262.5 -157.2 274.1 -113.5C285.6 -69.9 305.1 -35 324.5 0L0 0Z" fill="#71da5a"></path><path d="M0 -162.2C15 -145.6 30 -129 51.3 -123.8C72.5 -118.6 100 -124.7 114.7 -114.7C129.4 -104.7 131.3 -78.6 137 -56.8C142.8 -35 152.5 -17.5 162.2 0L0 0Z" fill="#0acb00"></path></g></svg>