<svg id="visual" viewBox="0 0 960 540" width="960" height="540" xmlns="http://www.w3.org/2000/svg" xmlns:xlink="http://www.w3.org/1999/xlink" version="1.1"><rect x="0" y="0" width="960" height="540" fill="#fff"></rect><path d="M0 295L22.8 288C45.7 281 91.3 267 137 262.2C182.7 257.3 228.3 261.7 274 269.3C319.7 277 365.3 288 411.2 292.5C457 297 503 295 548.8 290.3C594.7 285.7 640.3 278.3 686 281C731.7 283.7 777.3 296.3 823 299.8C868.7 303.3 914.3 297.7 937.2 294.8L960 292L960 541L937.2 541C914.3 541 868.7 541 823 541C777.3 541 731.7 541 686 541C640.3 541 594.7 541 548.8 541C503 541 457 541 411.2 541C365.3 541 319.7 541 274 541C228.3 541 182.7 541 137 541C91.3 541 45.7 541 22.8 541L0 541Z" fill="#c6ff91"></path><path d="M0 372L22.8 374.2C45.7 376.3 91.3 380.7 137 373.2C182.7 365.7 228.3 346.3 274 347.7C319.7 349 365.3 371 411.2 382.3C457 393.7 503 394.3 548.8 390.2C594.7 386 640.3 377 686 372.2C731.7 367.3 777.3 366.7 823 361C868.7 355.3 914.3 344.7 937.2 339.3L960 334L960 541L937.2 541C914.3 541 868.7 541 823 541C777.3 541 731.7 541 686 541C640.3 541 594.7 541 548.8 541C503 541 457 541 411.2 541C365.3 541 319.7 541 274 541C228.3 541 182.7 541 137 541C91.3 541 45.7 541 22.8 541L0 541Z" fill="#85e555"></path><path d="M0 465L22.8 463.7C45.7 462.3 91.3 459.7 137 460.8C182.7 462 228.3 467 274 462.3C319.7 457.7 365.3 443.3 411.2 445C457 446.7 503 464.3 548.8 469.2C594.7 474 640.3 466 686 454.8C731.7 443.7 777.3 429.3 823 433.2C868.7 437 914.3 459 937.2 470L960 481L960 541L937.2 541C914.3 541 868.7 541 823 541C777.3 541 731.7 541 686 541C640.3 541 594.7 541 548.8 541C503 541 457 541 411.2 541C365.3 541 319.7 541 274 541C228.3 541 182.7 541 137 541C91.3 541 45.7 541 22.8 541L0 541Z" fill="#0acb00"></path></svg>