<svg id="visual" viewBox="0 0 960 540" width="960" height="540" xmlns="http://www.w3.org/2000/svg" xmlns:xlink="http://www.w3.org/1999/xlink" version="1.1"><rect x="0" y="0" width="960" height="540" fill="#fff"></rect><path d="M0 279L22.8 280.5C45.7 282 91.3 285 137 281.5C182.7 278 228.3 268 274 262.3C319.7 256.7 365.3 255.3 411.2 263.5C457 271.7 503 289.3 548.8 288.2C594.7 287 640.3 267 686 265.7C731.7 264.3 777.3 281.7 823 286.7C868.7 291.7 914.3 284.3 937.2 280.7L960 277L960 541L937.2 541C914.3 541 868.7 541 823 541C777.3 541 731.7 541 686 541C640.3 541 594.7 541 548.8 541C503 541 457 541 411.2 541C365.3 541 319.7 541 274 541C228.3 541 182.7 541 137 541C91.3 541 45.7 541 22.8 541L0 541Z" fill="#c6ff91"></path><path d="M0 333L22.8 340C45.7 347 91.3 361 137 368C182.7 375 228.3 375 274 375.5C319.7 376 365.3 377 411.2 372C457 367 503 356 548.8 359.3C594.7 362.7 640.3 380.3 686 384C731.7 387.7 777.3 377.3 823 370C868.7 362.7 914.3 358.3 937.2 356.2L960 354L960 541L937.2 541C914.3 541 868.7 541 823 541C777.3 541 731.7 541 686 541C640.3 541 594.7 541 548.8 541C503 541 457 541 411.2 541C365.3 541 319.7 541 274 541C228.3 541 182.7 541 137 541C91.3 541 45.7 541 22.8 541L0 541Z" fill="#85e555"></path><path d="M0 453L22.8 450.8C45.7 448.7 91.3 444.3 137 438.2C182.7 432 228.3 424 274 421.3C319.7 418.7 365.3 421.3 411.2 427.3C457 433.3 503 442.7 548.8 447C594.7 451.3 640.3 450.7 686 445C731.7 439.3 777.3 428.7 823 430C868.7 431.3 914.3 444.7 937.2 451.3L960 458L960 541L937.2 541C914.3 541 868.7 541 823 541C777.3 541 731.7 541 686 541C640.3 541 594.7 541 548.8 541C503 541 457 541 411.2 541C365.3 541 319.7 541 274 541C228.3 541 182.7 541 137 541C91.3 541 45.7 541 22.8 541L0 541Z" fill="#0acb00"></path></svg>