<svg id="visual" viewBox="0 0 960 540" width="960" height="540" xmlns="http://www.w3.org/2000/svg" xmlns:xlink="http://www.w3.org/1999/xlink" version="1.1"><rect x="0" y="0" width="960" height="540" fill="#fff"></rect><path d="M0 290L22.8 292.2C45.7 294.3 91.3 298.7 137 296.8C182.7 295 228.3 287 274 281C319.7 275 365.3 271 411.2 267.8C457 264.7 503 262.3 548.8 266.2C594.7 270 640.3 280 686 283.8C731.7 287.7 777.3 285.3 823 289.2C868.7 293 914.3 303 937.2 308L960 313L960 541L937.2 541C914.3 541 868.7 541 823 541C777.3 541 731.7 541 686 541C640.3 541 594.7 541 548.8 541C503 541 457 541 411.2 541C365.3 541 319.7 541 274 541C228.3 541 182.7 541 137 541C91.3 541 45.7 541 22.8 541L0 541Z" fill="#c6ff91"></path><path d="M0 321L22.8 323.8C45.7 326.7 91.3 332.3 137 334.5C182.7 336.7 228.3 335.3 274 335C319.7 334.7 365.3 335.3 411.2 342.8C457 350.3 503 364.7 548.8 369.8C594.7 375 640.3 371 686 362.2C731.7 353.3 777.3 339.7 823 343C868.7 346.3 914.3 366.7 937.2 376.8L960 387L960 541L937.2 541C914.3 541 868.7 541 823 541C777.3 541 731.7 541 686 541C640.3 541 594.7 541 548.8 541C503 541 457 541 411.2 541C365.3 541 319.7 541 274 541C228.3 541 182.7 541 137 541C91.3 541 45.7 541 22.8 541L0 541Z" fill="#85e555"></path><path d="M0 432L22.8 430C45.7 428 91.3 424 137 421.3C182.7 418.7 228.3 417.3 274 426.3C319.7 435.3 365.3 454.7 411.2 465C457 475.3 503 476.7 548.8 469.5C594.7 462.3 640.3 446.7 686 445.2C731.7 443.7 777.3 456.3 823 455.3C868.7 454.3 914.3 439.7 937.2 432.3L960 425L960 541L937.2 541C914.3 541 868.7 541 823 541C777.3 541 731.7 541 686 541C640.3 541 594.7 541 548.8 541C503 541 457 541 411.2 541C365.3 541 319.7 541 274 541C228.3 541 182.7 541 137 541C91.3 541 45.7 541 22.8 541L0 541Z" fill="#0acb00"></path></svg>